<?xml version="1.0" encoding="utf-8"?>
<!-- Generator: Adobe Illustrator 19.1.0, SVG Export Plug-In . SVG Version: 6.00 Build 0)  -->
<svg version="1.1" id="Layer_1" xmlns="http://www.w3.org/2000/svg" xmlns:xlink="http://www.w3.org/1999/xlink" x="0px" y="0px"
	 viewBox="0 0 10.6 21.8" style="enable-background:new 0 0 10.6 21.8;" xml:space="preserve">
<style type="text/css">
	.st0{fill:#FFFFFF;}
</style>
<g>
	<path class="st0" d="M3.8,21.4c-0.3,0-0.5-0.2-0.5-0.5V1.1l0.9-0.4l6,5.6c0.2,0.2,0.2,0.5,0,0.7C10,7.2,9.7,7.2,9.5,7L4.4,2.3v18.7
		C4.4,21.2,4.1,21.4,3.8,21.4z"/>
	<path class="st0" d="M6.5,21.3l-6-5.6c-0.2-0.2-0.2-0.5,0-0.7c0.2-0.2,0.5-0.2,0.7,0l5.1,4.8V1.1c0-0.3,0.2-0.5,0.5-0.5
		c0.3,0,0.5,0.2,0.5,0.5v19.9L6.5,21.3z"/>
</g>
</svg>
